# xmcd
#
# Track frame offsets:
#	150
#	14918
#	27125
#	38585
#	51370
#	69050
#	81750
#	93588
#	110753
#	123473
#	133453
#	145470
#	157590
#	169158
#
# Disc length: 2381 seconds
#
# Revision: 1
# Processed by: cddbd v1.5.2PL0 Copyright (c) Steve Scherf et al.
# Submitted via: audiograbber 1.83.01
#
DISCID=c0094b0e
DTITLE=Jeannie C. Riley - Golden Memories
DYEAR=1990
DGENRE=Country
TTITLE0=Harper Valley P.T.A.
TTITLE1=There Never Was A Time
TTITLE2=Duty Not Desire
TTITLE3=Good Enough To Be Your Wife
TTITLE4=The Rib
TTITLE5=My Man
TTITLE6=Before The Next Teardrop Falls
TTITLE7=Oh Singer
TTITLE8=Roses And Thorns
TTITLE9=Things Go Better With Love
TTITLE10=Country Girl
TTITLE11=The Generation Gap
TTITLE12=The Back Side Of Dallas
TTITLE13=The Girl Most Likely
EXTD=
EXTT0=
EXTT1=
EXTT2=
EXTT3=
EXTT4=
EXTT5=
EXTT6=
EXTT7=
EXTT8=
EXTT9=
EXTT10=
EXTT11=
EXTT12=
EXTT13=
PLAYORDER=
